<?xml version="1.0" encoding="utf-8"?><svg viewBox="0 0 192 26" xmlns="http://www.w3.org/2000/svg" xmlns:xlink="http://www.w3.org/1999/xlink"><style>:root>svg{display:none}:root>svg:target{display:block}</style><svg fill="none" viewBox="0 0 192 26" id="logo" xmlns="http://www.w3.org/2000/svg"><path d="m100.88 16.344-2.902 3.026v5.466h-4.972V3.22h4.972v10.098L107.55 3.22h5.559l-8.956 9.634 9.481 11.982h-5.837l-6.917-8.492ZM121.864 7.975c2.573 0 4.549.618 5.929 1.853 1.379 1.215 2.069 3.057 2.069 5.528v9.48h-4.509v-2.07c-.906 1.545-2.594 2.317-5.064 2.317-1.277 0-2.388-.216-3.335-.648-.927-.433-1.637-1.03-2.131-1.792-.494-.761-.741-1.626-.741-2.594 0-1.543.576-2.758 1.729-3.643 1.174-.886 2.975-1.328 5.404-1.328h3.829c0-1.05-.319-1.853-.957-2.409-.638-.576-1.595-.864-2.872-.864-.885 0-1.76.144-2.625.432-.844.268-1.564.638-2.161 1.111l-1.73-3.365c.906-.639 1.987-1.133 3.243-1.483a14.764 14.764 0 0 1 3.922-.525Zm-.371 13.865c.824 0 1.554-.185 2.193-.555.638-.392 1.091-.958 1.358-1.699v-1.698h-3.304c-1.976 0-2.964.648-2.964 1.945 0 .618.236 1.112.71 1.483.494.35 1.163.524 2.007.524ZM138.823 10.415c.576-.803 1.348-1.41 2.316-1.822.988-.412 2.12-.618 3.396-.618v4.447a17.416 17.416 0 0 0-1.08-.062c-1.38 0-2.461.392-3.243 1.174-.782.761-1.173 1.914-1.173 3.458v7.844h-4.818V8.222h4.602v2.193ZM157.497 7.975c2.059 0 3.716.618 4.972 1.853 1.277 1.235 1.915 3.068 1.915 5.497v9.51h-4.818v-8.769c0-1.318-.288-2.295-.864-2.934-.577-.658-1.41-.988-2.501-.988-1.215 0-2.183.381-2.903 1.143-.721.74-1.081 1.853-1.081 3.335v8.214H147.4V8.222h4.601v1.946c.638-.7 1.431-1.235 2.378-1.606.947-.391 1.986-.587 3.118-.587ZM168.75 8.222h4.818v16.614h-4.818V8.222Zm2.409-2.316c-.885 0-1.606-.257-2.162-.772a2.506 2.506 0 0 1-.833-1.914c0-.762.278-1.4.833-1.915.556-.514 1.277-.772 2.162-.772s1.606.247 2.162.741c.555.495.833 1.112.833 1.853 0 .803-.278 1.472-.833 2.007-.556.515-1.277.772-2.162.772ZM191.718 21.13v3.706h-14.822v-2.903l8.461-10.005h-8.245V8.222h14.328v2.903l-8.461 10.005h8.739Z" fill="#E9136B"/><path d="M116.8 2.556h50.18l-3.86 3.86h-50.18l3.86-3.86Z" fill="#E9136B"/><path d="m24.345 3.236-9.357 21.616h-4.94L.721 3.236h5.404l6.577 15.44 6.67-15.44h4.972ZM29.982 25.099c-1.38 0-2.728-.165-4.045-.494-1.318-.35-2.368-.782-3.15-1.297l1.606-3.459c.74.474 1.636.865 2.686 1.174 1.05.288 2.08.432 3.088.432 2.038 0 3.057-.504 3.057-1.513 0-.473-.278-.813-.833-1.019-.556-.206-1.41-.38-2.563-.525-1.36-.206-2.481-.443-3.366-.71a5.329 5.329 0 0 1-2.316-1.42c-.639-.68-.958-1.648-.958-2.903 0-1.05.299-1.977.896-2.78.617-.823 1.503-1.461 2.655-1.914 1.174-.453 2.553-.68 4.138-.68 1.174 0 2.337.134 3.49.402 1.173.247 2.14.597 2.903 1.05l-1.606 3.428c-1.462-.824-3.057-1.236-4.787-1.236-1.029 0-1.8.144-2.316.433-.514.288-.772.658-.772 1.111 0 .515.278.875.834 1.081.556.206 1.441.402 2.656.587 1.359.226 2.47.473 3.335.741.864.247 1.616.71 2.254 1.39.638.679.957 1.626.957 2.84 0 1.03-.308 1.946-.926 2.749-.618.803-1.523 1.43-2.717 1.884-1.174.432-2.574.648-4.2.648ZM57.071 16.607c0 .062-.03.494-.092 1.297H44.41c.226 1.03.761 1.843 1.605 2.44.844.596 1.894.895 3.15.895.865 0 1.626-.123 2.285-.37a5.736 5.736 0 0 0 1.884-1.236l2.563 2.78c-1.565 1.79-3.85 2.686-6.855 2.686-1.874 0-3.531-.36-4.972-1.08-1.441-.742-2.553-1.761-3.335-3.058s-1.174-2.769-1.174-4.416c0-1.626.381-3.088 1.143-4.385a8.107 8.107 0 0 1 3.18-3.057c1.36-.741 2.873-1.112 4.54-1.112 1.626 0 3.098.35 4.416 1.05a7.536 7.536 0 0 1 3.088 3.027c.761 1.297 1.142 2.81 1.142 4.539Zm-8.615-4.972c-1.091 0-2.007.31-2.748.927-.742.617-1.194 1.461-1.36 2.532h8.184c-.165-1.05-.618-1.884-1.359-2.501-.74-.639-1.647-.958-2.717-.958ZM81.555 7.991c2.08 0 3.726.618 4.94 1.853 1.236 1.215 1.853 3.047 1.853 5.497v9.511h-4.817v-8.77c0-1.318-.278-2.295-.834-2.934-.535-.658-1.307-.988-2.316-.988-1.132 0-2.027.37-2.686 1.112-.659.72-.988 1.801-.988 3.242v8.338h-4.818v-8.77c0-2.615-1.05-3.922-3.15-3.922-1.111 0-1.996.37-2.655 1.112-.659.72-.988 1.801-.988 3.242v8.338h-4.817V8.239h4.6v1.914a6.107 6.107 0 0 1 2.255-1.606c.906-.37 1.894-.556 2.964-.556 1.174 0 2.234.237 3.181.71a5.523 5.523 0 0 1 2.285 2.008 6.843 6.843 0 0 1 2.563-2.007c1.05-.474 2.193-.71 3.428-.71Z" fill="#763261"/></svg></svg>